<svg id="svg" version="1.1" xmlns="http://www.w3.org/2000/svg" xmlns:xlink="http://www.w3.org/1999/xlink" width="400" height="198.6813186813187" viewBox="0, 0, 400,198.6813186813187"><g id="svgg"><path id="path0" d="M80.775 22.695 C 80.512 22.823,77.082 29.504,70.613 42.492 C 52.150 79.563,11.315 161.451,11.118 161.803 C 9.567 164.564,8.295 167.505,8.601 167.619 C 8.872 167.721,61.707 167.887,117.018 167.960 C 150.761 168.004,153.674 167.982,153.863 167.683 C 154.036 167.408,151.476 161.872,149.831 158.967 C 149.739 158.803,146.250 151.783,142.078 143.368 C 137.906 134.953,134.415 127.933,134.320 127.769 C 134.225 127.606,133.644 126.443,133.028 125.186 C 132.413 123.929,131.829 122.767,131.732 122.603 C 131.373 122.002,130.154 119.477,130.154 119.335 C 130.154 119.254,129.975 118.961,129.757 118.683 C 129.538 118.405,129.359 118.022,129.359 117.832 C 129.359 117.641,129.230 117.378,129.071 117.246 C 128.913 117.115,128.676 116.679,128.546 116.278 C 128.415 115.877,128.142 115.336,127.939 115.075 C 127.737 114.814,127.571 114.445,127.571 114.255 C 127.571 114.064,127.441 113.801,127.283 113.670 C 127.125 113.538,126.888 113.103,126.757 112.701 C 126.626 112.300,126.354 111.759,126.151 111.498 C 125.948 111.238,125.782 110.894,125.782 110.735 C 125.782 110.576,125.604 110.218,125.385 109.940 C 125.166 109.662,124.988 109.279,124.988 109.088 C 124.988 108.898,124.858 108.635,124.700 108.503 C 124.541 108.372,124.305 107.936,124.174 107.535 C 124.043 107.134,123.770 106.593,123.568 106.332 C 123.365 106.071,123.199 105.702,123.199 105.512 C 123.199 105.321,123.070 105.058,122.911 104.926 C 122.753 104.795,122.516 104.359,122.386 103.958 C 122.255 103.557,121.982 103.016,121.779 102.755 C 121.577 102.494,121.411 102.125,121.411 101.935 C 121.411 101.744,121.281 101.481,121.123 101.350 C 120.965 101.218,120.730 100.783,120.601 100.382 C 120.472 99.980,120.255 99.518,120.118 99.354 C 119.980 99.190,119.801 98.833,119.718 98.559 C 119.635 98.286,119.401 97.849,119.198 97.589 C 118.994 97.328,118.828 96.959,118.828 96.769 C 118.828 96.578,118.694 96.311,118.530 96.176 C 118.367 96.040,118.128 95.577,117.999 95.146 C 117.870 94.715,117.601 94.276,117.402 94.169 C 117.193 94.057,109.520 78.911,99.241 58.317 C 89.452 38.705,81.382 22.624,81.307 22.581 C 81.233 22.538,80.994 22.590,80.775 22.695 M314.524 27.767 C 313.507 27.820,313.168 27.915,313.060 28.176 C 312.822 28.751,312.964 162.600,313.203 162.888 C 313.530 163.282,338.368 163.253,338.909 162.858 C 339.287 162.581,339.296 161.965,339.394 130.783 C 339.498 97.598,339.538 96.215,340.275 100.471 C 340.572 102.184,340.979 104.243,341.568 107.004 C 341.777 107.988,342.036 109.285,342.143 109.886 C 342.513 111.960,343.004 114.362,343.384 115.953 C 343.594 116.831,343.766 117.767,343.766 118.033 C 343.766 118.299,343.937 119.235,344.147 120.113 C 344.495 121.569,344.779 122.948,345.358 125.981 C 345.472 126.582,345.712 127.745,345.891 128.564 C 346.070 129.384,346.326 130.681,346.461 131.446 C 346.705 132.836,347.005 134.354,347.736 137.904 C 347.950 138.942,348.218 140.283,348.333 140.884 C 348.918 143.948,349.196 145.297,349.544 146.753 C 349.754 147.630,349.925 148.566,349.925 148.833 C 349.925 149.099,350.097 150.035,350.307 150.913 C 350.700 152.556,351.076 154.419,351.715 157.874 C 351.917 158.967,352.178 160.173,352.295 160.555 C 352.413 160.937,352.509 161.496,352.509 161.797 C 352.509 163.204,351.864 163.140,365.891 163.140 C 377.833 163.140,378.495 163.121,378.807 162.776 C 379.205 162.336,379.327 28.946,378.930 28.204 C 378.730 27.830,378.379 27.819,366.224 27.819 L 353.723 27.819 353.414 28.261 C 353.138 28.656,353.103 31.925,353.091 59.110 C 353.082 80.340,353.016 89.368,352.871 89.021 C 352.758 88.748,352.492 88.122,352.281 87.630 C 352.070 87.139,351.776 85.976,351.627 85.047 C 351.340 83.253,350.936 81.110,350.335 78.192 C 349.788 75.535,349.304 73.013,349.022 71.336 C 348.765 69.814,348.384 67.860,347.725 64.680 C 347.521 63.696,347.270 62.355,347.167 61.699 C 346.985 60.533,346.683 58.945,345.959 55.340 C 345.761 54.357,345.446 52.792,345.260 51.863 C 345.073 50.934,344.808 49.503,344.669 48.684 C 344.387 47.007,343.903 44.485,343.356 41.828 C 342.752 38.897,342.350 36.763,342.065 34.973 C 341.917 34.044,341.664 32.792,341.504 32.191 C 341.343 31.590,341.151 30.529,341.076 29.834 C 340.873 27.952,340.773 27.895,337.483 27.759 C 334.597 27.641,316.815 27.647,314.524 27.767 M170.268 28.148 C 170.038 28.425,169.995 38.973,169.995 95.428 L 169.995 162.380 170.464 162.760 C 171.128 163.297,224.090 163.363,224.626 162.827 C 224.991 162.462,225.104 140.859,224.743 140.288 C 224.580 140.029,222.747 139.977,210.887 139.891 L 197.218 139.791 197.119 84.054 C 197.064 53.398,196.947 28.204,196.859 28.068 C 196.579 27.635,170.629 27.713,170.268 28.148 M246.220 28.179 C 245.952 28.680,245.459 32.433,245.301 35.171 C 245.229 36.428,245.047 38.306,244.897 39.344 C 244.747 40.383,244.534 42.573,244.423 44.213 C 244.311 45.852,244.092 48.132,243.936 49.280 C 243.779 50.427,243.592 52.350,243.519 53.552 C 243.447 54.754,243.265 56.677,243.115 57.824 C 242.965 58.972,242.788 60.626,242.721 61.500 C 242.654 62.375,242.474 64.074,242.321 65.276 C 242.169 66.478,241.946 69.026,241.827 70.939 C 241.708 72.851,241.487 75.266,241.336 76.304 C 241.184 77.342,241.003 79.220,240.932 80.477 C 240.861 81.734,240.636 83.969,240.433 85.445 C 240.229 86.920,240.007 89.155,239.940 90.412 C 239.872 91.669,239.693 93.636,239.541 94.784 C 239.390 95.931,239.212 97.809,239.145 98.957 C 239.079 100.104,238.898 102.027,238.743 103.229 C 238.587 104.431,238.370 106.711,238.259 108.296 C 238.149 109.881,237.931 112.116,237.776 113.264 C 237.620 114.411,237.434 116.379,237.361 117.635 C 237.289 118.892,237.107 120.725,236.957 121.709 C 236.807 122.692,236.589 124.928,236.473 126.677 C 236.356 128.425,236.174 130.392,236.066 131.047 C 235.959 131.703,235.779 133.581,235.666 135.220 C 235.553 136.860,235.334 139.096,235.179 140.189 C 235.024 141.282,234.839 143.204,234.768 144.461 C 234.697 145.718,234.516 147.596,234.367 148.634 C 234.217 149.672,233.999 151.893,233.881 153.569 C 233.763 155.245,233.536 157.608,233.376 158.822 C 233.023 161.501,233.009 162.586,233.323 162.901 C 233.762 163.340,258.573 163.234,258.964 162.792 C 259.184 162.544,259.310 161.791,259.404 160.159 C 259.477 158.902,259.662 156.577,259.815 154.993 C 259.969 153.408,260.188 150.278,260.303 148.038 C 260.565 142.940,260.720 141.911,261.300 141.442 C 261.991 140.882,276.211 140.891,276.771 141.451 C 277.218 141.898,277.527 144.087,277.811 148.815 C 277.920 150.628,278.100 152.737,278.211 153.502 C 278.323 154.267,278.529 156.584,278.668 158.651 C 279.012 163.742,277.246 163.140,291.825 163.140 C 305.363 163.140,304.823 163.202,304.541 161.680 C 304.477 161.335,304.333 159.712,304.220 158.073 C 304.107 156.433,303.890 154.153,303.736 153.005 C 303.583 151.858,303.400 149.935,303.329 148.733 C 303.258 147.531,303.027 145.178,302.817 143.503 C 302.606 141.829,302.434 139.935,302.434 139.295 C 302.434 138.654,302.262 136.760,302.051 135.086 C 301.841 133.412,301.610 131.058,301.539 129.856 C 301.468 128.654,301.285 126.731,301.132 125.584 C 300.978 124.436,300.761 122.156,300.648 120.516 C 300.535 118.876,300.353 116.998,300.244 116.343 C 300.135 115.688,299.957 113.810,299.849 112.171 C 299.741 110.532,299.519 108.207,299.357 107.004 C 299.195 105.802,298.970 103.471,298.856 101.823 C 298.742 100.175,298.563 98.298,298.457 97.650 C 298.351 97.003,298.173 95.087,298.061 93.393 C 297.949 91.699,297.732 89.419,297.578 88.326 C 297.425 87.233,297.243 85.355,297.175 84.153 C 297.106 82.951,296.923 80.984,296.767 79.781 C 296.611 78.579,296.392 76.299,296.282 74.714 C 296.171 73.130,295.952 70.805,295.795 69.548 C 295.638 68.291,295.452 66.279,295.383 65.077 C 295.313 63.875,295.133 61.997,294.984 60.904 C 294.835 59.811,294.659 57.761,294.594 56.349 C 294.529 54.937,294.347 53.039,294.188 52.133 C 294.030 51.226,293.804 49.073,293.686 47.349 C 293.567 45.624,293.344 43.363,293.191 42.325 C 293.037 41.287,292.858 39.185,292.793 37.655 C 292.671 34.757,292.000 29.041,291.692 28.266 L 291.514 27.819 268.963 27.819 C 247.394 27.819,246.404 27.835,246.220 28.179 M268.938 51.244 C 269.142 51.574,269.623 55.728,269.746 58.222 C 269.813 59.588,270.045 62.136,270.262 63.885 C 270.478 65.633,270.738 68.629,270.839 70.541 C 270.939 72.454,271.114 74.511,271.228 75.112 C 271.341 75.713,271.527 77.725,271.641 79.583 C 271.755 81.441,271.974 83.989,272.127 85.246 C 272.281 86.503,272.462 88.604,272.529 89.916 C 272.596 91.227,272.778 93.329,272.934 94.587 C 273.089 95.845,273.310 98.393,273.426 100.250 C 273.541 102.107,273.759 104.610,273.910 105.812 C 274.061 107.014,274.242 109.116,274.313 110.482 C 274.383 111.848,274.569 113.990,274.727 115.243 C 275.335 120.091,275.946 119.653,268.675 119.579 C 262.062 119.511,262.704 120.031,263.162 115.117 C 263.354 113.060,263.596 109.811,263.700 107.899 C 263.804 105.986,264.021 103.125,264.184 101.540 C 264.347 99.955,264.571 96.899,264.682 94.748 C 264.794 92.597,264.971 90.157,265.076 89.325 C 265.182 88.494,265.364 85.962,265.481 83.698 C 265.598 81.435,265.832 78.465,266.002 77.099 C 266.172 75.733,266.385 72.827,266.475 70.641 C 266.565 68.455,266.780 65.579,266.951 64.250 C 267.123 62.921,267.310 60.418,267.366 58.686 C 267.564 52.622,268.131 49.938,268.938 51.244 M135.171 130.961 C 144.980 150.572,152.983 166.796,152.956 167.014 C 152.906 167.410,152.737 167.412,117.437 167.466 C 79.917 167.524,81.073 167.543,81.073 166.873 C 81.073 166.424,116.075 96.147,116.609 95.524 C 116.775 95.330,117.007 95.202,117.124 95.238 C 117.241 95.275,125.363 111.350,135.171 130.961 " stroke="none" fill="#7ccce4" fill-rule="evenodd"></path><path id="path1" d="M116.609 95.524 C 116.075 96.147,81.073 166.424,81.073 166.873 C 81.073 167.543,79.917 167.524,117.437 167.466 C 152.737 167.412,152.906 167.410,152.956 167.014 C 153.012 166.566,117.456 95.341,117.124 95.238 C 117.007 95.202,116.775 95.330,116.609 95.524 " stroke="none" fill="#06bcd4" fill-rule="evenodd"></path><path id="path2" d="M0.000 99.354 L 0.000 198.708 200.000 198.708 L 400.000 198.708 400.000 99.354 L 400.000 0.000 200.000 0.000 L 0.000 0.000 0.000 99.354 M99.241 58.317 C 109.520 78.911,117.193 94.057,117.402 94.169 C 117.601 94.276,117.870 94.715,117.999 95.146 C 118.128 95.577,118.367 96.040,118.530 96.176 C 118.694 96.311,118.828 96.578,118.828 96.769 C 118.828 96.959,118.994 97.328,119.198 97.589 C 119.401 97.849,119.635 98.286,119.718 98.559 C 119.801 98.833,119.980 99.190,120.118 99.354 C 120.255 99.518,120.472 99.980,120.601 100.382 C 120.730 100.783,120.965 101.218,121.123 101.350 C 121.281 101.481,121.411 101.744,121.411 101.935 C 121.411 102.125,121.577 102.494,121.779 102.755 C 121.982 103.016,122.255 103.557,122.386 103.958 C 122.516 104.359,122.753 104.795,122.911 104.926 C 123.070 105.058,123.199 105.321,123.199 105.512 C 123.199 105.702,123.365 106.071,123.568 106.332 C 123.770 106.593,124.043 107.134,124.174 107.535 C 124.305 107.936,124.541 108.372,124.700 108.503 C 124.858 108.635,124.988 108.898,124.988 109.088 C 124.988 109.279,125.166 109.662,125.385 109.940 C 125.604 110.218,125.782 110.576,125.782 110.735 C 125.782 110.894,125.948 111.238,126.151 111.498 C 126.354 111.759,126.626 112.300,126.757 112.701 C 126.888 113.103,127.125 113.538,127.283 113.670 C 127.441 113.801,127.571 114.064,127.571 114.255 C 127.571 114.445,127.737 114.814,127.939 115.075 C 128.142 115.336,128.415 115.877,128.546 116.278 C 128.676 116.679,128.913 117.115,129.071 117.246 C 129.230 117.378,129.359 117.641,129.359 117.832 C 129.359 118.022,129.538 118.405,129.757 118.683 C 129.975 118.961,130.154 119.254,130.154 119.335 C 130.154 119.477,131.373 122.002,131.732 122.603 C 131.829 122.767,132.413 123.929,133.028 125.186 C 133.644 126.443,134.225 127.606,134.320 127.769 C 134.415 127.933,137.906 134.953,142.078 143.368 C 146.250 151.783,149.739 158.803,149.831 158.967 C 151.476 161.872,154.036 167.408,153.863 167.683 C 153.674 167.982,150.761 168.004,117.018 167.960 C 61.707 167.887,8.872 167.721,8.601 167.619 C 8.295 167.505,9.567 164.564,11.118 161.803 C 11.315 161.451,52.150 79.563,70.613 42.492 C 79.847 23.953,80.755 22.263,81.307 22.581 C 81.382 22.624,89.452 38.705,99.241 58.317 M337.483 27.759 C 340.773 27.895,340.873 27.952,341.076 29.834 C 341.151 30.529,341.343 31.590,341.504 32.191 C 341.664 32.792,341.917 34.044,342.065 34.973 C 342.350 36.763,342.752 38.897,343.356 41.828 C 343.903 44.485,344.387 47.007,344.669 48.684 C 344.808 49.503,345.073 50.934,345.260 51.863 C 345.446 52.792,345.761 54.357,345.959 55.340 C 346.683 58.945,346.985 60.533,347.167 61.699 C 347.270 62.355,347.521 63.696,347.725 64.680 C 348.384 67.860,348.765 69.814,349.022 71.336 C 349.304 73.013,349.788 75.535,350.335 78.192 C 350.936 81.110,351.340 83.253,351.627 85.047 C 351.776 85.976,352.070 87.139,352.281 87.630 C 352.492 88.122,352.758 88.748,352.871 89.021 C 353.016 89.368,353.082 80.340,353.091 59.110 C 353.103 31.925,353.138 28.656,353.414 28.261 L 353.723 27.819 366.224 27.819 C 378.379 27.819,378.730 27.830,378.930 28.204 C 379.327 28.946,379.205 162.336,378.807 162.776 C 378.495 163.121,377.833 163.140,365.891 163.140 C 351.864 163.140,352.509 163.204,352.509 161.797 C 352.509 161.496,352.413 160.937,352.295 160.555 C 352.178 160.173,351.917 158.967,351.715 157.874 C 351.076 154.419,350.700 152.556,350.307 150.913 C 350.097 150.035,349.925 149.099,349.925 148.833 C 349.925 148.566,349.754 147.630,349.544 146.753 C 349.196 145.297,348.918 143.948,348.333 140.884 C 348.218 140.283,347.950 138.942,347.736 137.904 C 347.005 134.354,346.705 132.836,346.461 131.446 C 346.326 130.681,346.070 129.384,345.891 128.564 C 345.712 127.745,345.472 126.582,345.358 125.981 C 344.779 122.948,344.495 121.569,344.147 120.113 C 343.937 119.235,343.766 118.299,343.766 118.033 C 343.766 117.767,343.594 116.831,343.384 115.953 C 343.004 114.362,342.513 111.960,342.143 109.886 C 342.036 109.285,341.777 107.988,341.568 107.004 C 340.979 104.243,340.572 102.184,340.275 100.471 C 339.538 96.215,339.498 97.598,339.394 130.783 C 339.296 161.965,339.287 162.581,338.909 162.858 C 338.368 163.253,313.530 163.282,313.203 162.888 C 312.964 162.600,312.822 28.751,313.060 28.176 C 313.259 27.694,329.260 27.421,337.483 27.759 M196.859 28.068 C 196.947 28.204,197.064 53.398,197.119 84.054 L 197.218 139.791 210.887 139.891 C 222.747 139.977,224.580 140.029,224.743 140.288 C 225.104 140.859,224.991 162.462,224.626 162.827 C 224.090 163.363,171.128 163.297,170.464 162.760 L 169.995 162.380 169.995 95.428 C 169.995 38.973,170.038 28.425,170.268 28.148 C 170.629 27.713,196.579 27.635,196.859 28.068 M291.692 28.266 C 292.000 29.041,292.671 34.757,292.793 37.655 C 292.858 39.185,293.037 41.287,293.191 42.325 C 293.344 43.363,293.567 45.624,293.686 47.349 C 293.804 49.073,294.030 51.226,294.188 52.133 C 294.347 53.039,294.529 54.937,294.594 56.349 C 294.659 57.761,294.835 59.811,294.984 60.904 C 295.133 61.997,295.313 63.875,295.383 65.077 C 295.452 66.279,295.638 68.291,295.795 69.548 C 295.952 70.805,296.171 73.130,296.282 74.714 C 296.392 76.299,296.611 78.579,296.767 79.781 C 296.923 80.984,297.106 82.951,297.175 84.153 C 297.243 85.355,297.425 87.233,297.578 88.326 C 297.732 89.419,297.949 91.699,298.061 93.393 C 298.173 95.087,298.351 97.003,298.457 97.650 C 298.563 98.298,298.742 100.175,298.856 101.823 C 298.970 103.471,299.195 105.802,299.357 107.004 C 299.519 108.207,299.741 110.532,299.849 112.171 C 299.957 113.810,300.135 115.688,300.244 116.343 C 300.353 116.998,300.535 118.876,300.648 120.516 C 300.761 122.156,300.978 124.436,301.132 125.584 C 301.285 126.731,301.468 128.654,301.539 129.856 C 301.610 131.058,301.841 133.412,302.051 135.086 C 302.262 136.760,302.434 138.654,302.434 139.295 C 302.434 139.935,302.606 141.829,302.817 143.503 C 303.027 145.178,303.258 147.531,303.329 148.733 C 303.400 149.935,303.583 151.858,303.736 153.005 C 303.890 154.153,304.107 156.433,304.220 158.073 C 304.333 159.712,304.477 161.335,304.541 161.680 C 304.823 163.202,305.363 163.140,291.825 163.140 C 277.246 163.140,279.012 163.742,278.668 158.651 C 278.529 156.584,278.323 154.267,278.211 153.502 C 278.100 152.737,277.920 150.628,277.811 148.815 C 277.527 144.087,277.218 141.898,276.771 141.451 C 276.211 140.891,261.991 140.882,261.300 141.442 C 260.720 141.911,260.565 142.940,260.303 148.038 C 260.188 150.278,259.969 153.408,259.815 154.993 C 259.662 156.577,259.477 158.902,259.404 160.159 C 259.310 161.791,259.184 162.544,258.964 162.792 C 258.573 163.234,233.762 163.340,233.323 162.901 C 233.009 162.586,233.023 161.501,233.376 158.822 C 233.536 157.608,233.763 155.245,233.881 153.569 C 233.999 151.893,234.217 149.672,234.367 148.634 C 234.516 147.596,234.697 145.718,234.768 144.461 C 234.839 143.204,235.024 141.282,235.179 140.189 C 235.334 139.096,235.553 136.860,235.666 135.220 C 235.779 133.581,235.959 131.703,236.066 131.047 C 236.174 130.392,236.356 128.425,236.473 126.677 C 236.589 124.928,236.807 122.692,236.957 121.709 C 237.107 120.725,237.289 118.892,237.361 117.635 C 237.434 116.379,237.620 114.411,237.776 113.264 C 237.931 112.116,238.149 109.881,238.259 108.296 C 238.370 106.711,238.587 104.431,238.743 103.229 C 238.898 102.027,239.079 100.104,239.145 98.957 C 239.212 97.809,239.390 95.931,239.541 94.784 C 239.693 93.636,239.872 91.669,239.940 90.412 C 240.007 89.155,240.229 86.920,240.433 85.445 C 240.636 83.969,240.861 81.734,240.932 80.477 C 241.003 79.220,241.184 77.342,241.336 76.304 C 241.487 75.266,241.708 72.851,241.827 70.939 C 241.946 69.026,242.169 66.478,242.321 65.276 C 242.474 64.074,242.654 62.375,242.721 61.500 C 242.788 60.626,242.965 58.972,243.115 57.824 C 243.265 56.677,243.447 54.754,243.519 53.552 C 243.592 52.350,243.779 50.427,243.936 49.280 C 244.092 48.132,244.311 45.852,244.423 44.213 C 244.534 42.573,244.747 40.383,244.897 39.344 C 245.047 38.306,245.229 36.428,245.301 35.171 C 245.459 32.433,245.952 28.680,246.220 28.179 C 246.404 27.835,247.394 27.819,268.963 27.819 L 291.514 27.819 291.692 28.266 M268.084 51.417 C 267.800 51.947,267.480 55.182,267.366 58.686 C 267.310 60.418,267.123 62.921,266.951 64.250 C 266.780 65.579,266.565 68.455,266.475 70.641 C 266.385 72.827,266.172 75.733,266.002 77.099 C 265.832 78.465,265.598 81.435,265.481 83.698 C 265.364 85.962,265.182 88.494,265.076 89.325 C 264.971 90.157,264.794 92.597,264.682 94.748 C 264.571 96.899,264.347 99.955,264.184 101.540 C 264.021 103.125,263.804 105.986,263.700 107.899 C 263.596 109.811,263.354 113.060,263.162 115.117 C 262.704 120.031,262.062 119.511,268.675 119.579 C 275.946 119.653,275.335 120.091,274.727 115.243 C 274.569 113.990,274.383 111.848,274.313 110.482 C 274.242 109.116,274.061 107.014,273.910 105.812 C 273.759 104.610,273.541 102.107,273.426 100.250 C 273.310 98.393,273.089 95.845,272.934 94.587 C 272.778 93.329,272.596 91.227,272.529 89.916 C 272.462 88.604,272.281 86.503,272.127 85.246 C 271.974 83.989,271.755 81.441,271.641 79.583 C 271.527 77.725,271.341 75.713,271.228 75.112 C 271.114 74.511,270.939 72.454,270.839 70.541 C 270.738 68.629,270.478 65.633,270.262 63.885 C 270.045 62.136,269.813 59.588,269.746 58.222 C 269.464 52.521,268.846 49.992,268.084 51.417 " stroke="none" fill="#fbfcfc" fill-rule="evenodd"></path></g></svg>